MoBL_ARMS_module2_4_allmuscles_shoulder_states	
version=1	
nRows=210	
nColumns=2	
inDegrees=yes	
	
# SIMM Motion File Header:	
name MoBL_ARMS_module2_4_allmuscles_shoulder_states	
datacolumns 2	
datarows 210	
otherdata 1	
range 0 0.472872218	
endheader	
time	shoulder_elv
0	20.00000007
0.001823746	19.99958105
0.004583999	19.99731884
0.007344252	19.9931178
0.010104505	19.98702943
0.012013856	19.98174353
0.013923207	19.97559765
0.016339137	19.96661234
0.018755068	19.95630026
0.021170999	19.94468404
0.023586929	19.93178163
0.02600286	19.91760691
0.028418791	19.90217229
0.030834721	19.8854876
0.033250652	19.86756169
0.035762834	19.84761288
0.038275017	19.82633842
0.040141843	19.80967456
0.04241856	19.78837023
0.044695277	19.76599186
0.046679835	19.74561329
0.048664393	19.72442604
0.050648951	19.70243456
0.05368109	19.6672895
0.055998553	19.63917701
0.058316017	19.60998688
0.060266386	19.58458984
0.062216756	19.55843688
0.064167125	19.53153229
0.066998125	19.49114955
0.069464458	19.45469356
0.07193079	19.41705815
0.074036319	19.38400075
0.076141848	19.35009275
0.078247377	19.31533918
0.082904308	19.23548948
0.084962015	19.19890911
0.087019723	19.1615367
0.090037825	19.10530123
0.091952459	19.06875154
0.093867093	19.0315305
0.095781727	18.99363833
0.09825207	18.94376211
0.100722412	18.89278042
0.102577379	18.85377646
0.104432346	18.81415532
0.106287312	18.77392057
0.108899797	18.71621889
0.111512281	18.65731272
0.113595913	18.60947176
0.115679545	18.5608724
0.118889986	18.48451318
0.120806049	18.43809033
0.122722112	18.3910354
0.125296546	18.32682112
0.12787098	18.26147732
0.129544335	18.21840236
0.131703231	18.1621314
0.133862127	18.10507972
0.136021024	18.04725174
0.13817992	17.98865334
0.140252979	17.93166447
0.142326039	17.87397442
0.144399098	17.81558848
0.147052095	17.7398612
0.149705091	17.66301271
0.151839872	17.60036792
0.153974652	17.53700999
0.156714916	17.45464562
0.158719626	17.39365835
0.160724336	17.33205885
0.163246392	17.25370007
0.165768449	17.17438994
0.168290506	17.09413859
0.170415013	17.0258141
0.172873471	16.94593246
0.17533193	16.86518356
0.177568615	16.79097308
0.1798053	16.71605995
0.182041984	16.64045097
0.184278669	16.56415391
0.186263348	16.49588289
0.188248026	16.42708078
0.190232705	16.35775309
0.192689778	16.27120319
0.195146852	16.18386576
0.197603926	16.09575111
0.199733371	16.01876455
0.201862817	15.94120867
0.204162177	15.85683253
0.206461537	15.77180824
0.208760898	15.68614467
0.210752568	15.61143419
0.212744239	15.53625585
0.214735909	15.46061565
0.218559061	15.31414447
0.222382213	15.16603197
0.224053884	15.1007645
0.226256575	15.0143024
0.228459266	14.92732264
0.230661957	14.83983263
0.232864648	14.75184067
0.236175175	14.61866595
0.238202228	14.53658243
0.24022928	14.45409635
0.242256332	14.37121356
0.244283385	14.28794045
0.24702218	14.17481891
0.249760975	14.06101185
0.252153145	13.96106091
0.254545314	13.86061346
0.256722344	13.76877896
0.258899374	13.67655395
0.261309824	13.57399717
0.263720273	13.47098868
0.265920685	13.376575
0.268121097	13.28181177
0.270362625	13.18493287
0.272604153	13.08772055
0.275379401	12.96692006
0.277569983	12.87123884
0.279760565	12.77527871
0.281951148	12.6790509
0.283834043	12.5961341
0.285716939	12.51303554
0.287599835	12.42976325
0.289990736	12.32378631
0.292381637	12.21755965
0.294619013	12.11794327
0.296856389	12.01813788
0.299093764	11.91815717
0.30133114	11.818015
0.303285192	11.73043287
0.305239244	11.64274918
0.307193295	11.55497764
0.310090949	11.42469407
0.312342869	11.32337083
0.314594789	11.22201338
0.316846709	11.12064711
0.318767333	11.03420418
0.320687956	10.94778559
0.322608579	10.86140565
0.325193758	10.74522456
0.327465154	10.64325633
0.329485841	10.55265365
0.331506528	10.46217519
0.335001643	10.30602245
0.336590876	10.23518298
0.3388645	10.13403289
0.340703922	10.05238012
0.342543343	9.970898821
0.344827193	9.869983076
0.346808751	9.782663674
0.348790309	9.695578066
0.352833004	9.518678121
0.354265706	9.456245922
0.356228581	9.370941052
0.358629032	9.26699252
0.360642642	9.180121994
0.362656253	9.093557605
0.365624465	8.96652949
0.367860038	8.871320051
0.370095611	8.776520828
0.372331183	8.682141533
0.374854206	8.576143319
0.376975296	8.487464285
0.379096386	8.399189063
0.381217477	8.311325214
0.383338567	8.223880229
0.385530981	8.133942904
0.387723395	8.044469596
0.389915808	7.955468648
0.392507058	7.850898957
0.394404173	7.774776125
0.396301288	7.699028138
0.398198402	7.623660761
0.400485688	7.533307975
0.402772973	7.443528994
0.404737225	7.36689706
0.406701478	7.290705419
0.410144297	7.158249138
0.41155803	7.104267329
0.413594759	7.026924436
0.416047398	6.934467745
0.418104189	6.857515649
0.42016098	6.781102874
0.422789444	6.684248816
0.425417908	6.588302385
0.428089777	6.491718119
0.430150019	6.417903432
0.432210262	6.34467202
0.434270505	6.272032049
0.436330747	6.199991793
0.43839099	6.128560441
0.440451233	6.057746705
0.443250613	5.962533769
0.446049993	5.868498148
0.447830636	5.809307823
0.44961128	5.750606445
0.452213848	5.665702763
0.453754307	5.61595551
0.455719533	5.553046358
0.457982711	5.481381761
0.460004267	5.418086935
0.462025824	5.355479662
0.464868438	5.268624501
0.466869383	5.2083244
0.468870328	5.14872519
0.470871273	5.089834446
0.472872218	5.031659631
